<?xml version="1.0" encoding="utf-8"?>
<!-- Generator: Adobe Illustrator 16.0.4, SVG Export Plug-In . SVG Version: 6.00 Build 0)  -->
<!DOCTYPE svg PUBLIC "-//W3C//DTD SVG 1.1//EN" "http://www.w3.org/Graphics/SVG/1.1/DTD/svg11.dtd">
<svg version="1.1" id="Layer_1" xmlns="http://www.w3.org/2000/svg" xmlns:xlink="http://www.w3.org/1999/xlink" x="0px" y="0px"
	 width="48px" height="48px" viewBox="0 0 48 48" enable-background="new 0 0 48 48" xml:space="preserve">
<path d="M15.487,11.741c-0.003-0.019-0.009-0.036-0.015-0.054c-0.009-0.032-0.012-0.065-0.027-0.097
	c-0.087-0.171-0.258-0.263-0.437-0.266c-0.022-0.008-0.041-0.022-0.065-0.026l-2.301-0.429c-0.266-0.049-0.532,0.127-0.583,0.399
	c-0.051,0.271,0.128,0.533,0.399,0.583l1.178,0.22c-1.433,1.018-2.638,2.465-3.455,4.194c-0.118,0.25-0.012,0.548,0.238,0.666
	c0.069,0.032,0.142,0.048,0.214,0.048c0.187,0,0.366-0.105,0.452-0.286c0.766-1.62,1.899-2.964,3.241-3.886l-0.213,1.25
	c-0.046,0.272,0.137,0.53,0.409,0.577c0.028,0.005,0.057,0.007,0.085,0.007c0.239,0,0.45-0.172,0.492-0.416l0.393-2.309
	c0.004-0.024-0.003-0.048-0.002-0.071C15.493,11.811,15.493,11.777,15.487,11.741z"/>
<path d="M36.193,33.651c0.11-0.253-0.005-0.548-0.258-0.658c-0.248-0.108-0.547,0.003-0.658,0.258
	c-0.702,1.604-1.763,2.953-3.038,3.91l0.226-1.104c0.055-0.271-0.12-0.534-0.391-0.59c-0.266-0.053-0.534,0.119-0.59,0.391
	l-0.456,2.235c-0.002,0.005-0.002,0.01-0.003,0.015l-0.013,0.06c-0.008,0.032-0.001,0.063-0.002,0.096
	c0,0.011-0.002,0.02-0.001,0.03c0.003,0.094,0.021,0.186,0.075,0.266c0.076,0.115,0.198,0.193,0.335,0.215l2.31,0.376
	c0.027,0.005,0.054,0.007,0.081,0.007c0.24,0,0.452-0.175,0.492-0.42c0.045-0.272-0.141-0.529-0.413-0.573l-1.086-0.177
	C34.231,36.924,35.416,35.427,36.193,33.651z"/>
<path d="M15.733,37.057c-1.518-0.885-2.74-2.101-3.544-3.486l1.109,0.342c0.263,0.081,0.543-0.066,0.625-0.33
	s-0.066-0.544-0.33-0.625l-2.165-0.669c-0.077-0.037-0.16-0.052-0.247-0.046c-0.083,0-0.165,0.012-0.239,0.052
	c-0.121,0.065-0.21,0.179-0.246,0.312l-0.602,2.262c-0.07,0.268,0.088,0.541,0.354,0.612c0.043,0.012,0.087,0.017,0.129,0.017
	c0.222,0,0.424-0.147,0.483-0.371l0.275-1.034c0.891,1.526,2.233,2.86,3.893,3.829c0.079,0.047,0.166,0.068,0.252,0.068
	c0.172,0,0.339-0.089,0.432-0.248C16.053,37.502,15.972,37.195,15.733,37.057z"/>
<path d="M37.654,14.354c-0.273-0.069-0.539,0.103-0.603,0.37l-0.257,1.073c-0.946-1.516-2.348-2.82-4.059-3.738
	c-0.243-0.129-0.547-0.039-0.677,0.204c-0.131,0.243-0.039,0.546,0.204,0.677c1.565,0.84,2.842,2.029,3.695,3.405L34.84,16.07
	c-0.269-0.066-0.539,0.099-0.604,0.365c-0.066,0.269,0.098,0.539,0.365,0.605l2.272,0.562c0.011,0.003,0.021,0.002,0.033,0.004
	c0.013,0.001,0.023,0.011,0.036,0.011c0.006,0,0.013-0.004,0.019-0.004c0.011,0.001,0.021,0.004,0.032,0.004
	c0.091,0,0.181-0.024,0.26-0.073c0.114-0.069,0.195-0.181,0.227-0.311l0.545-2.276C38.089,14.688,37.923,14.419,37.654,14.354z"/>
<path d="M28.677,39.299c-0.072-0.266-0.337-0.422-0.614-0.352l-1.859,0.507l-1.656-0.948l1.658-0.94l1.846,0.516
	c0.045,0.013,0.091,0.019,0.135,0.019c0.219,0,0.42-0.145,0.481-0.365c0.074-0.267-0.081-0.542-0.347-0.616l-0.888-0.249l0.653-0.37
	c0.24-0.136,0.325-0.441,0.188-0.682c-0.137-0.241-0.443-0.326-0.682-0.188l-0.686,0.389l0.264-0.951
	c0.074-0.266-0.082-0.542-0.348-0.615c-0.271-0.075-0.541,0.082-0.615,0.348l-0.532,1.917l-1.66,0.941v-1.989l1.359-1.358
	c0.195-0.195,0.195-0.512,0-0.707s-0.512-0.195-0.707,0l-0.652,0.651V33.5c0-0.276-0.224-0.5-0.5-0.5s-0.5,0.224-0.5,0.5v0.782
	l-0.694-0.689c-0.196-0.195-0.513-0.193-0.707,0.002c-0.195,0.196-0.193,0.513,0.002,0.707l1.399,1.39v1.938l-1.703-0.975
	l-0.51-1.854c-0.073-0.267-0.346-0.42-0.615-0.35c-0.266,0.073-0.423,0.349-0.35,0.615l0.243,0.884l-0.651-0.372
	c-0.238-0.137-0.545-0.056-0.682,0.186c-0.138,0.239-0.055,0.545,0.186,0.682l0.687,0.393l-0.946,0.258
	c-0.266,0.072-0.423,0.348-0.351,0.614c0.061,0.222,0.262,0.368,0.482,0.368c0.043,0,0.088-0.006,0.132-0.018l1.909-0.521
	l1.681,0.962l-1.678,0.951l-1.911-0.525c-0.27-0.071-0.541,0.083-0.615,0.35c-0.073,0.267,0.084,0.542,0.35,0.615l0.944,0.26
	l-0.723,0.409c-0.24,0.136-0.325,0.441-0.188,0.682c0.092,0.162,0.261,0.253,0.435,0.253c0.084,0,0.169-0.021,0.247-0.065
	l0.678-0.385l-0.245,0.885c-0.074,0.266,0.081,0.542,0.348,0.615c0.045,0.013,0.09,0.019,0.134,0.019c0.22,0,0.42-0.145,0.481-0.366
	l0.514-1.851l1.719-0.974v1.883l-1.4,1.399c-0.195,0.195-0.195,0.512,0,0.707s0.512,0.195,0.707,0l0.693-0.692V43.5
	c0,0.276,0.224,0.5,0.5,0.5s0.5-0.224,0.5-0.5v-0.782l0.651,0.656c0.098,0.099,0.226,0.147,0.354,0.147
	c0.127,0,0.255-0.049,0.353-0.146c0.195-0.194,0.197-0.511,0.002-0.707l-1.36-1.37v-1.946l1.646,0.942l0.524,1.912
	c0.062,0.222,0.263,0.367,0.482,0.367c0.044,0,0.088-0.006,0.133-0.018c0.266-0.073,0.423-0.349,0.35-0.615l-0.259-0.942
	l0.719,0.411c0.078,0.045,0.163,0.066,0.248,0.066c0.173,0,0.342-0.091,0.434-0.252c0.138-0.239,0.055-0.545-0.186-0.682
	l-0.677-0.387l0.896-0.244C28.592,39.84,28.749,39.564,28.677,39.299z"/>
<path d="M41.21,18.061c-0.008-0.004-0.016-0.008-0.024-0.012c-0.102-0.049-0.214-0.06-0.319-0.038
	c-0.207,0.043-3.639,0.799-4.655,3.819c-0.383,1.326-0.422,3.397,1.543,5.765l-0.763,2.572c-0.078,0.265,0.072,0.543,0.338,0.621
	c0.047,0.014,0.095,0.021,0.142,0.021c0.216,0,0.415-0.141,0.479-0.358l0.739-2.492c2.977-0.422,3.957-2.263,4.251-3.762
	C43.433,21.683,42.211,18.6,41.21,18.061z M41.959,24.004c-0.014,0.068-0.035,0.129-0.052,0.194l-2.254,0.505l0.602-2.029
	l1.778-0.196C42.07,22.98,42.059,23.497,41.959,24.004z M41.19,19.519c0.338,0.604,0.702,1.608,0.822,2.711l-1.681,0.185
	L41.19,19.519z M39.811,20.654l-0.67-0.854c0.386-0.236,0.766-0.417,1.084-0.542L39.811,20.654z M38.928,19.935l0.796,1.015
	l-0.733,2.473l-1.691-1.604C37.668,20.979,38.288,20.365,38.928,19.935z M37.532,25.449l0.689,0.568l-0.117,0.395
	C37.877,26.091,37.69,25.77,37.532,25.449z M38.299,25.756l-0.985-0.813c-0.359-0.952-0.414-1.895-0.148-2.814
	c0.008-0.023,0.021-0.043,0.028-0.065l1.718,1.629L38.299,25.756z M39.007,26.886l0.565-1.908l2.264-0.507
	C41.435,25.752,40.489,26.563,39.007,26.886z"/>
<path d="M30.79,9h-2.869c-0.042-0.291-0.108-0.575-0.219-0.838l2.055-1.233c0.237-0.142,0.314-0.449,0.172-0.686
	c-0.142-0.236-0.45-0.313-0.686-0.172l-2.069,1.241c-0.146-0.178-0.309-0.34-0.486-0.486l1.241-2.069
	c0.143-0.236,0.065-0.544-0.172-0.686c-0.233-0.143-0.543-0.065-0.686,0.172l-1.233,2.055C25.575,6.188,25.291,6.121,25,6.079V3.5
	C25,3.224,24.776,3,24.5,3S24,3.224,24,3.5v2.579c-0.291,0.042-0.575,0.108-0.838,0.219l-1.233-2.055
	c-0.142-0.237-0.449-0.315-0.687-0.172c-0.236,0.142-0.312,0.449-0.171,0.686l1.241,2.069c-0.178,0.146-0.34,0.309-0.486,0.486
	l-2.068-1.241c-0.238-0.145-0.545-0.064-0.687,0.172s-0.065,0.544,0.171,0.686l2.056,1.233C21.188,8.425,21.121,8.709,21.079,9H18.5
	C18.224,9,18,9.224,18,9.5s0.224,0.5,0.5,0.5h2.579c0.042,0.291,0.108,0.575,0.219,0.838l-2.056,1.233
	c-0.236,0.142-0.312,0.449-0.171,0.686C19.165,12.913,19.33,13,19.5,13c0.088,0,0.177-0.022,0.258-0.071l2.068-1.241
	c0.146,0.178,0.309,0.34,0.486,0.486l-1.241,2.069c-0.142,0.236-0.065,0.544,0.171,0.686C21.323,14.978,21.412,15,21.5,15
	c0.17,0,0.335-0.087,0.429-0.243l1.233-2.055c0.264,0.11,0.547,0.177,0.838,0.219v2.868c0,0.276,0.224,0.5,0.5,0.5
	s0.5-0.224,0.5-0.5v-2.868c0.291-0.042,0.575-0.108,0.838-0.219l1.233,2.055C27.165,14.913,27.331,15,27.5,15
	c0.088,0,0.177-0.022,0.257-0.071c0.237-0.142,0.314-0.449,0.172-0.686l-1.241-2.069c0.178-0.146,0.34-0.309,0.486-0.486
	l2.069,1.241C29.323,12.978,29.412,13,29.5,13c0.169,0,0.335-0.087,0.429-0.243c0.143-0.236,0.065-0.544-0.172-0.686l-2.055-1.233
	c0.11-0.263,0.177-0.547,0.219-0.838h2.869c0.276,0,0.5-0.224,0.5-0.5S31.066,9,30.79,9z M21.972,9.5
	c0-1.395,1.134-2.528,2.528-2.528s2.528,1.134,2.528,2.528s-1.134,2.528-2.528,2.528S21.972,10.895,21.972,9.5z"/>
<g>
	<path d="M15,24c0-0.893-0.588-1.65-1.396-1.907c0.391-0.753,0.27-1.704-0.361-2.336c-0.61-0.607-1.598-0.747-2.336-0.361
		C10.649,18.587,9.893,18,9,18s-1.649,0.587-1.906,1.396c-0.738-0.386-1.725-0.247-2.338,0.362c-0.629,0.631-0.75,1.582-0.359,2.335
		C3.588,22.35,3,23.107,3,24s0.588,1.65,1.396,1.907c-0.391,0.753-0.27,1.704,0.361,2.336c0.605,0.604,1.581,0.749,2.335,0.359
		C7.349,29.412,8.107,30,9,30s1.651-0.588,1.907-1.397c0.755,0.391,1.729,0.245,2.337-0.36c0.629-0.631,0.75-1.582,0.359-2.335
		C14.412,25.65,15,24.893,15,24z M13,25h-0.378c-0.202,0-0.385,0.122-0.462,0.309c-0.078,0.187-0.035,0.402,0.108,0.545l0.267,0.268
		c0.391,0.39,0.391,1.024,0.002,1.413c-0.378,0.375-1.041,0.376-1.416,0.001l-0.268-0.268c-0.143-0.143-0.357-0.185-0.545-0.108
		C10.121,27.236,10,27.419,10,27.621V28c0,0.552-0.449,1-1,1s-1-0.448-1-1v-0.379c0-0.202-0.121-0.385-0.309-0.462
		c-0.062-0.025-0.127-0.038-0.191-0.038c-0.13,0-0.258,0.051-0.354,0.146l-0.268,0.268c-0.374,0.376-1.039,0.374-1.414,0
		c-0.391-0.39-0.391-1.024-0.001-1.414l0.268-0.268c0.144-0.143,0.187-0.358,0.108-0.545C5.763,25.122,5.58,25,5.378,25H5
		c-0.551,0-1-0.448-1-1s0.449-1,1-1h0.378c0.202,0,0.385-0.122,0.462-0.309c0.078-0.187,0.035-0.402-0.108-0.545l-0.267-0.268
		c-0.391-0.39-0.391-1.024-0.002-1.413c0.381-0.38,1.04-0.38,1.416-0.001l0.268,0.268c0.144,0.144,0.357,0.186,0.545,0.108
		S8,20.581,8,20.379V20c0-0.552,0.449-1,1-1s1,0.448,1,1v0.379c0,0.202,0.121,0.385,0.309,0.462
		c0.188,0.076,0.402,0.034,0.545-0.108l0.27-0.269c0.371-0.377,1.033-0.377,1.412,0.001c0.391,0.39,0.391,1.024,0.001,1.414
		l-0.268,0.268c-0.144,0.143-0.187,0.358-0.108,0.545C12.237,22.878,12.42,23,12.622,23H13c0.551,0,1,0.448,1,1S13.551,25,13,25z"/>
	<path d="M9,21c-1.654,0-3,1.346-3,3s1.346,3,3,3s3-1.346,3-3S10.654,21,9,21z M9,26c-1.104,0-2-0.897-2-2s0.896-2,2-2s2,0.897,2,2
		S10.104,26,9,26z"/>
</g>
</svg>
