<?xml version="1.0" encoding="utf-8"?>
<!-- Generator: Adobe Illustrator 16.0.4, SVG Export Plug-In . SVG Version: 6.00 Build 0)  -->
<!DOCTYPE svg PUBLIC "-//W3C//DTD SVG 1.1//EN" "https://www.w3.org/Graphics/SVG/1.1/DTD/svg11.dtd">
<svg version="1.1" id="Layer_1" xmlns="https://www.w3.org/2000/svg" xmlns:xlink="https://www.w3.org/1999/xlink" x="0px" y="0px"
	 width="220px" height="32px" viewBox="0 0 220 32" enable-background="new 0 0 220 32" xml:space="preserve">
<path d="M198.447,3.502l11.308,15.822c0.388,0.582,0.55,1.49,0.745,2.148V3.502h5V29.5h-4.188l-10.767-14.855
	c-0.353-0.58-0.853-1.529-1.047-2.109V29.5H194.5V3.502H198.447z"/>
<path d="M3.5,1.5h5v28h-5V1.5z M18.799,7.072l3.781,3.041l-7.562,8.086L24.189,29.5h-6.391L8.76,18.242L18.799,7.072z"/>
<path d="M50.5,29.5v-21h4v1.787c1.479-1.479,3.738-2.391,6.127-2.391c2.695,0,4.912,1.131,6.217,3.086
	c1.521-1.781,3.693-3.086,6.607-3.086c4.781,0,7.996,3.391,7.996,8.782V29.5H76.5V17.111c0-2.65-1.441-4.736-4.049-4.736
	c-1.652,0-3.043,0.998-3.957,2.564V29.5H63.5V17.154c0-2.738-1.48-4.779-4.002-4.779c-1.609,0-3,0.955-3.998,2.26V29.5H50.5z"/>
<path d="M90.5,8.5v12.482c0,2.824,1.605,5.041,4.52,5.041c2.91,0,4.48-2.217,4.48-5.041V8.5h5v12.264
	c0,5.65-3.527,9.736-9.697,9.736c-5.957,0-9.303-4.086-9.303-9.736V8.5H90.5z"/>
<path d="M112.5,8.5v1.875c1.609-1.479,4.148-2.479,6.625-2.479c5.305,0,8.375,3.652,8.375,9.258V29.5h-4.939V17.373
	c0-2.869-1.607-4.998-4.479-4.998c-1.693,0-3.453,0.912-4.582,2.26V29.5h-4.893v-21H112.5z"/>
<path d="M136.5,3.502V29.5h-4.766V3.502H136.5z"/>
<path d="M141.5,3.502h4.881V29.5H141.5V3.502z M158.314,2.959l3.781,3.043l-9.238,10.852l9.58,12.646h-6.391l-9.449-12.602
	L158.314,2.959z"/>
<path fill="#E68C1E" d="M169.5,24.5L169.5,24.5h-0.006v-17c-2.994,3-4.994,5.912-4.994,10.041V29.5h1
	C169.631,29.5,169.5,26.5,169.5,24.5L169.5,24.5z"/>
<path fill="#006E96" d="M164.562,24.5h4.315h0.006H186.5c-3,3-5.914,5-10.041,5H164.5v-5"/>
<rect x="164.5" y="24.5" fill="#508C50" width="5" height="5"/>
<path fill="#E68C1E" d="M185.5,8.5L185.5,8.5V8.494h-17c3-2.994,5.912-4.994,10.041-4.994H190.5v1C190.5,8.631,187.5,8.5,185.5,8.5
	L185.5,8.5z"/>
<path fill="#006E96" d="M185.5,3.562v4.317v0.006V25.5c3-3,5-5.914,5-10.041V3.5h-5"/>
<rect x="185.5" y="3.5" fill="#508C50" width="5" height="5"/>
<path fill="#E68C1E" d="M28.5,25.462L28.5,25.462h1V11.731c-2.418,2.423-4,4.775-4,8.11V29.5h0.808c3.336,0,3.192-2.423,3.192-4.038
	H28.5z"/>
<path fill="#006E96" d="M25.55,26.5l3.487-1h0.005H43.27c-2.423,2.423-4.776,4-8.11,4H25.5v-3"/>
<rect x="25.5" y="25.5" fill="#508C50" width="4" height="4"/>
<path fill="#E68C1E" d="M42.329,11.471L42.329,11.471v0.99H28.731C31.13,10.066,33.46,8.5,36.763,8.5h9.566v0.8
	c0,3.304-2.399,3.2-4,3.2V11.471z"/>
<path fill="#006E96" d="M43.5,8.55l-1,3.487v0.005V26.27c2.423-2.424,4-4.775,4-8.108V8.5h-4.039"/>
<rect x="42.5" y="8.5" fill="#508C50" width="4" height="4"/>
</svg>
